<svg width="50" height="50" viewBox="0 0 50 50" fill="none" xmlns="http://www.w3.org/2000/svg">
<path d="M16.6034 50C21.2384 50 25.0001 46.2666 25.0001 41.6666V33.3333H16.6034C11.9684 33.3333 8.2066 37.0666 8.2066 41.6666C8.2066 46.2666 11.9684 50 16.6034 50Z" fill="#0ACF83"/>
<path d="M8.2066 25C8.2066 20.4 11.9684 16.6666 16.6034 16.6666H25.0001V33.3333H16.6034C11.9684 33.3333 8.2066 29.6 8.2066 25Z" fill="#A259FF"/>
<path d="M8.2067 8.33333C8.2067 3.73333 11.9685 0 16.6035 0H25.0002V16.6667H16.6035C11.9685 16.6667 8.2067 12.9333 8.2067 8.33333Z" fill="#F24E1E"/>
<path d="M25 0H33.3968C38.0318 0 41.7935 3.73333 41.7935 8.33333C41.7935 12.9333 38.0318 16.6667 33.3968 16.6667H25V0Z" fill="#FF7262"/>
<path d="M41.7935 25C41.7935 29.6 38.0318 33.3333 33.3968 33.3333C28.7617 33.3333 25 29.6 25 25C25 20.4 28.7617 16.6666 33.3968 16.6666C38.0318 16.6666 41.7935 20.4 41.7935 25Z" fill="#1ABCFE"/>
</svg>
