<svg width="50" height="51" viewBox="0 0 50 51" fill="none" xmlns="http://www.w3.org/2000/svg">
<path d="M45.1172 0.5H4.88281C2.18611 0.5 0 2.68611 0 5.38281V45.6172C0 48.3139 2.18611 50.5 4.88281 50.5H45.1172C47.8139 50.5 50 48.3139 50 45.6172V5.38281C50 2.68611 47.8139 0.5 45.1172 0.5Z" fill="url(#paint0_linear_0_264)"/>
<path d="M41.1562 6.99997H30.5938C29.2993 6.99997 28.25 8.0493 28.25 9.34372V26.5312C28.25 27.8256 29.2993 28.875 30.5938 28.875H41.1562C42.4507 28.875 43.5 27.8256 43.5 26.5312V9.34372C43.5 8.0493 42.4507 6.99997 41.1562 6.99997Z" fill="white"/>
<path d="M19.4063 6.99997H8.84376C7.54934 6.99997 6.50001 8.0493 6.50001 9.34372V39.0312C6.50001 40.3256 7.54934 41.375 8.84376 41.375H19.4063C20.7007 41.375 21.75 40.3256 21.75 39.0312V9.34372C21.75 8.0493 20.7007 6.99997 19.4063 6.99997Z" fill="white"/>
<defs>
<linearGradient id="paint0_linear_0_264" x1="2500" y1="0.5" x2="2500" y2="5000.5" gradientUnits="userSpaceOnUse">
<stop stop-color="#0091E6"/>
<stop offset="1" stop-color="#0079BF"/>
</linearGradient>
</defs>
</svg>
