<svg width="40" height="41" viewBox="0 0 40 41" fill="none" xmlns="http://www.w3.org/2000/svg">
<path opacity="0.4" d="M36.6667 13.6417V16.475C36.6667 17.7583 35.3 18.525 34.1667 17.925C31.7167 16.6083 28.7667 16.0917 25.6667 16.7417C23.6667 17.1583 21.8167 18.0917 20.3 19.375C19.4333 20.0917 18.6667 20.9417 18.0167 21.875C17.1167 23.1917 16.45 24.6917 16.1167 26.2917C15.4667 29.3917 15.9833 32.3417 17.3 34.7917C17.9 35.925 17.1333 37.2917 15.85 37.2917H13.0167C7.66666 37.2917 3.33333 32.9583 3.33333 27.6083V13.6417C3.33333 8.29168 7.66666 3.95834 13.0167 3.95834H26.9833C32.3333 3.95834 36.6667 8.29168 36.6667 13.6417Z" fill="white"/>
<path d="M20.3 19.375C19.4333 20.0917 18.6667 20.9417 18.0167 21.875H3.33333V19.375H20.3Z" fill="white"/>
<path d="M10 15.625C9.31667 15.625 8.75 15.0583 8.75 14.375V11.0417C8.75 10.3583 9.31667 9.79166 10 9.79166C10.6833 9.79166 11.25 10.3583 11.25 11.0417V14.375C11.25 15.0583 10.6833 15.625 10 15.625Z" fill="white"/>
<path d="M16.6667 15.625C15.9833 15.625 15.4167 15.0583 15.4167 14.375V11.0417C15.4167 10.3583 15.9833 9.79166 16.6667 9.79166C17.35 9.79166 17.9167 10.3583 17.9167 11.0417V14.375C17.9167 15.0583 17.35 15.625 16.6667 15.625Z" fill="white"/>
<path d="M10 31.875C9.31667 31.875 8.75 31.3083 8.75 30.625V27.2917C8.75 26.6083 9.31667 26.0417 10 26.0417C10.6833 26.0417 11.25 26.6083 11.25 27.2917V30.625C11.25 31.3083 10.6833 31.875 10 31.875Z" fill="white"/>
<path d="M30 13.9583H23.3333C22.65 13.9583 22.0833 13.3917 22.0833 12.7083C22.0833 12.025 22.65 11.4583 23.3333 11.4583H30C30.6833 11.4583 31.25 12.025 31.25 12.7083C31.25 13.3917 30.6833 13.9583 30 13.9583Z" fill="white"/>
<path d="M28.3333 18.9583C22.8167 18.9583 18.3333 23.4417 18.3333 28.9583C18.3333 34.475 22.8167 38.9583 28.3333 38.9583C33.85 38.9583 38.3333 34.475 38.3333 28.9583C38.3333 23.4417 33.85 18.9583 28.3333 18.9583ZM33.2167 30.9583C32.95 31.6083 32.5667 32.1917 32.0667 32.6917C31.0667 33.6917 29.75 34.2417 28.3333 34.2417C27.2 34.2417 26.1334 33.875 25.2334 33.2083V33.4417C25.2334 33.9583 24.8167 34.3917 24.2833 34.3917C23.7667 34.3917 23.3333 33.975 23.3333 33.4417V31.0417C23.3333 30.525 23.75 30.0917 24.2833 30.0917H26.6834C27.2 30.0917 27.6333 30.5083 27.6333 31.0417C27.6333 31.525 27.2833 31.8917 26.8167 31.9583C28.0833 32.575 29.7 32.375 30.7167 31.3583C31.0333 31.0417 31.2833 30.6583 31.45 30.2417C31.65 29.7583 32.2 29.525 32.6833 29.725C33.1833 29.9083 33.4167 30.475 33.2167 30.9583ZM33.3333 26.8917C33.3333 27.4083 32.9167 27.8417 32.3833 27.8417H29.9833C29.4667 27.8417 29.0334 27.425 29.0334 26.8917C29.0334 26.4083 29.3833 26.0417 29.85 25.975C28.5833 25.3583 26.9667 25.5583 25.9333 26.575C25.65 26.8583 25.4333 27.175 25.2667 27.525C25.1 27.875 24.7667 28.075 24.4167 28.075C24.2833 28.075 24.15 28.0417 24.0167 27.9917C23.55 27.775 23.3334 27.2083 23.5667 26.725C23.8334 26.175 24.1834 25.675 24.6 25.2417C25.6 24.2417 26.9167 23.6917 28.3333 23.6917C29.4667 23.6917 30.5333 24.0583 31.4333 24.725V24.5083C31.4333 23.9917 31.85 23.5583 32.3833 23.5583C32.9167 23.5583 33.3333 23.9583 33.3333 24.4917V26.8917Z" fill="white"/>
</svg>
