<svg width="40" height="41" viewBox="0 0 40 41" fill="none" xmlns="http://www.w3.org/2000/svg">
<path opacity="0.4" d="M17.4833 4.34166L9.16667 7.45835C7.25 8.17501 5.68334 10.4417 5.68334 12.4917V24.875C5.68334 26.8417 6.98336 29.425 8.56669 30.6083L15.7333 35.9583C18.0833 37.725 21.95 37.725 24.3 35.9583L31.4667 30.6083C33.05 29.425 34.35 26.8417 34.35 24.875V12.4917C34.35 10.4417 32.7833 8.17501 30.8666 7.45835L22.55 4.34166C21.1333 3.825 18.8667 3.825 17.4833 4.34166Z" fill="white"/>
<path d="M19.8333 19.4583C19.8667 19.4583 19.9 19.4583 19.9333 19.4583H19.9667H20C21.9167 19.3917 23.4167 17.8417 23.4333 15.9083C23.4333 13.9417 21.8334 12.3417 19.8667 12.3417C17.9 12.3417 16.3 13.9417 16.3 15.9083C16.3333 17.825 17.8333 19.3917 19.8333 19.4583Z" fill="white"/>
<path d="M23.65 22.975C21.6333 21.6417 18.3666 21.6417 16.3333 22.975C15.4 23.6083 14.85 24.5083 14.85 25.4417C14.85 26.3917 15.3833 27.2583 16.3333 27.8917C17.35 28.5583 18.6667 28.9083 19.9833 28.9083C21.3 28.9083 22.6333 28.575 23.6333 27.8917C24.5667 27.2583 25.1167 26.3583 25.1167 25.425C25.1333 24.475 24.6 23.6083 23.65 22.975Z" fill="white"/>
</svg>
