<svg width="40" height="41" viewBox="0 0 40 41" fill="none" xmlns="http://www.w3.org/2000/svg">
<path opacity="0.6" d="M16.85 7.29167C16.7166 7.79167 16.6667 8.34167 16.6667 8.95834V13.9583H8.33334V10.625C8.33334 8.79167 9.83334 7.29167 11.6667 7.29167H16.85Z" fill="white"/>
<path d="M16.6667 32.2917V13.9583H8.33333C5 13.9583 3.33333 15.625 3.33333 18.9583V32.2917C3.33333 35.625 5 37.2917 8.33333 37.2917H21.6667C18.3333 37.2917 16.6667 35.625 16.6667 32.2917ZM11.25 28.9583C11.25 29.6417 10.6833 30.2083 10 30.2083C9.31667 30.2083 8.75 29.6417 8.75 28.9583V22.2917C8.75 21.6083 9.31667 21.0417 10 21.0417C10.6833 21.0417 11.25 21.6083 11.25 22.2917V28.9583Z" fill="white"/>
<path opacity="0.4" d="M23.3333 37.2917H21.6667C18.3333 37.2917 16.6667 35.625 16.6667 32.2917V8.95833C16.6667 5.62499 18.3333 3.95833 21.6667 3.95833H31.6667C35 3.95833 36.6667 5.62499 36.6667 8.95833V32.2917C36.6667 35.625 35 37.2917 31.6667 37.2917H30" fill="white"/>
<path d="M30 30.625V37.2917H23.3333V30.625C23.3333 29.7083 24.0833 28.9583 25 28.9583H28.3333C29.25 28.9583 30 29.7083 30 30.625Z" fill="white"/>
<path d="M23.3333 23.5417C22.65 23.5417 22.0833 22.975 22.0833 22.2917V13.9583C22.0833 13.275 22.65 12.7083 23.3333 12.7083C24.0167 12.7083 24.5833 13.275 24.5833 13.9583V22.2917C24.5833 22.975 24.0167 23.5417 23.3333 23.5417Z" fill="white"/>
<path d="M30 23.5417C29.3167 23.5417 28.75 22.975 28.75 22.2917V13.9583C28.75 13.275 29.3167 12.7083 30 12.7083C30.6833 12.7083 31.25 13.275 31.25 13.9583V22.2917C31.25 22.975 30.6833 23.5417 30 23.5417Z" fill="white"/>
</svg>
